<svg xmlns="http://www.w3.org/2000/svg" xmlns:xlink="http://www.w3.org/1999/xlink" width="1920" height="1080" viewBox="0 0 1920 1080"><defs><filter id="a" x="865" y="592" width="190" height="79" filterUnits="userSpaceOnUse"><feOffset input="SourceAlpha"/><feGaussianBlur stdDeviation="6" result="b"/><feFlood flood-opacity="0.039"/><feComposite operator="in" in2="b"/><feComposite in="SourceGraphic"/></filter><filter id="c" x="678" y="364" width="564" height="79" filterUnits="userSpaceOnUse"><feOffset input="SourceAlpha"/><feGaussianBlur stdDeviation="6" result="d"/><feFlood flood-opacity="0.039"/><feComposite operator="in" in2="d"/><feComposite in="SourceGraphic"/></filter><filter id="e" x="678" y="508" width="564" height="79" filterUnits="userSpaceOnUse"><feOffset input="SourceAlpha"/><feGaussianBlur stdDeviation="6" result="f"/><feFlood flood-opacity="0.039"/><feComposite operator="in" in2="f"/><feComposite in="SourceGraphic"/></filter><clipPath id="h"><rect width="1920" height="1080"/></clipPath></defs><g id="g" clip-path="url(#h)"><rect width="1920" height="1080" fill="#14bccc"/><g transform="translate(409.709 -691.933)" style="isolation:isolate"><text transform="translate(550.403 731.933)" fill="#fff" font-size="26" font-family="SofiaPro-Bold, Sofia Pro" font-weight="700" letter-spacing="0.093em" style="isolation:isolate"><tspan x="-53.027" y="0">cohesie</tspan></text></g><path d="M25.071,3h-18A2.571,2.571,0,0,0,4.5,5.571v18a2.571,2.571,0,0,0,2.571,2.571h5.143L16.071,30l3.857-3.857h5.143a2.579,2.579,0,0,0,2.571-2.571v-18A2.579,2.579,0,0,0,25.071,3ZM17.357,23.571H14.786V21h2.571Zm2.661-9.964L18.861,14.79a4.377,4.377,0,0,0-1.5,3.639H14.786v-.643a5.175,5.175,0,0,1,1.5-3.639l1.594-1.62a2.514,2.514,0,0,0,.759-1.813,2.571,2.571,0,1,0-5.143,0H10.929a5.143,5.143,0,1,1,10.286,0,4.091,4.091,0,0,1-1.2,2.893Z" transform="translate(1842.5 13)" fill="#fff"/><text transform="translate(960 276)" fill="#fff" font-size="61" font-family="SofiaPro-Bold, Sofia Pro" font-weight="700" letter-spacing="-0.017em"><tspan x="-197.457" y="0">Create a team</tspan></text><path d="M30.069,34.073,18.9,22.88,30.069,11.688,26.63,8.25,12,22.88l14.63,14.63Z" transform="translate(7 8.75)" fill="#fff"/><g transform="translate(-3 -28)"><g transform="matrix(1, 0, 0, 1, 3, 28)" filter="url(#a)"><rect width="154" height="43" transform="translate(883 610)" fill="#e88b1e"/></g><text transform="translate(963 667)" fill="#fff" font-size="20" font-family="SofiaPro-Bold, Sofia Pro" font-weight="700" letter-spacing="-0.017em"><tspan x="-56.56" y="0">Create team</tspan></text></g><text transform="translate(960 889)" fill="#fff" font-size="20" font-family="SofiaProRegular, Sofia Pro" letter-spacing="-0.017em"><tspan x="-107.07" y="0">Or skip to finish this later</tspan><tspan font-family="SofiaPro-Bold, Sofia Pro" font-weight="700"><tspan x="-2.38" y="25"> </tspan></tspan><tspan font-family="SofiaPro-Bold, Sofia Pro" font-weight="700" text-decoration="underline"><tspan x="-19.19" y="50">Skip</tspan></tspan></text><g transform="matrix(1, 0, 0, 1, 0, 0)" filter="url(#c)"><rect width="528" height="43" transform="translate(696 382)" fill="#fff"/></g><text transform="translate(696 366)" fill="#fff" font-size="15" font-family="SofiaProRegular, Sofia Pro" letter-spacing="-0.017em"><tspan x="0" y="0">Add teammembers</tspan></text><text transform="translate(838 409)" fill="#191919" font-size="15" font-family="SofiaProRegular, Sofia Pro" letter-spacing="-0.017em"><tspan x="-132.015" y="0">(for example: bennie@benniewalstra.nl)</tspan></text><text transform="translate(696 450)" fill="#fff" font-size="15" font-family="SofiaProRegular, Sofia Pro" letter-spacing="-0.017em"><tspan x="0" y="0">You can add as many emailadresses as you would like!</tspan></text><g transform="matrix(1, 0, 0, 1, 0, 0)" filter="url(#e)"><rect width="528" height="43" transform="translate(696 526)" fill="#fff"/></g><text transform="translate(696 510)" fill="#fff" font-size="15" font-family="SofiaProRegular, Sofia Pro" letter-spacing="-0.017em"><tspan x="0" y="0">No e-mailadresses? Use the link below to share via different platforms.</tspan></text><text transform="translate(717 553)" fill="#191919" font-size="15" font-family="SofiaProRegular, Sofia Pro" letter-spacing="-0.017em"><tspan x="-11.145" y="0">link</tspan></text></g></svg>