<svg xmlns="http://www.w3.org/2000/svg" xmlns:xlink="http://www.w3.org/1999/xlink" width="1920" height="1080" viewBox="0 0 1920 1080">
  <defs>
    <clipPath id="clip-Web_1920_3">
      <rect width="1920" height="1080"/>
    </clipPath>
  </defs>
  <g id="Web_1920_3" data-name="Web 1920 – 3" clip-path="url(#clip-Web_1920_3)">
    <rect width="1920" height="1080" fill="#fff"/>
    <g id="Group_7" data-name="Group 7" transform="translate(1740.975 389.338) rotate(180)">
      <line id="Line_3" data-name="Line 3" x2="8.506" y2="8.506" transform="translate(0 0)" fill="none" stroke="#fff" stroke-linecap="round" stroke-width="1"/>
      <line id="Line_4" data-name="Line 4" x1="8.506" y2="8.506" transform="translate(8.506 0)" fill="none" stroke="#fff" stroke-linecap="round" stroke-width="1"/>
    </g>
    <g id="Group_8" data-name="Group 8" transform="translate(1721.461 581.072)">
      <line id="Line_3-2" data-name="Line 3" x2="9.757" y2="8.506" fill="none" stroke="#fff" stroke-linecap="round" stroke-width="1"/>
      <line id="Line_4-2" data-name="Line 4" x1="9.757" y2="8.506" transform="translate(9.757)" fill="none" stroke="#fff" stroke-linecap="round" stroke-width="1"/>
    </g>
    <text id="Call_dentist" data-name="Call dentist" transform="translate(211 373)" fill="#5c5c5c" font-size="24" font-family="Montserrat-SemiBold, Montserrat" font-weight="600"><tspan x="0" y="0">Call dentist</tspan></text>
    <g id="Rectangle_10" data-name="Rectangle 10" transform="translate(153 354)" fill="#fff" stroke="#8fb4e0" stroke-width="1">
      <rect width="23" height="24" stroke="none"/>
      <rect x="0.5" y="0.5" width="22" height="23" fill="none"/>
    </g>
    <line id="Line_5" data-name="Line 5" x2="1624" transform="translate(153 417.866)" fill="none" stroke="#cecece" stroke-linecap="round" stroke-width="1"/>
    <g id="Icon_feather-trash-2" data-name="Icon feather-trash-2" transform="translate(1727.365 348.862)">
      <path id="Path_2" data-name="Path 2" d="M4.5,9H32.435" transform="translate(-4.5 -2.792)" fill="none" stroke="#f59c9c" stroke-linecap="round" stroke-linejoin="round" stroke-width="2"/>
      <path id="Path_3" data-name="Path 3" d="M29.228,9.208V30.935a3.1,3.1,0,0,1-3.1,3.1H10.6a3.1,3.1,0,0,1-3.1-3.1V9.208m4.656,0V6.1A3.1,3.1,0,0,1,15.26,3h6.208a3.1,3.1,0,0,1,3.1,3.1v3.1" transform="translate(-4.396 -3)" fill="none" stroke="#f59c9c" stroke-linecap="round" stroke-linejoin="round" stroke-width="2"/>
      <path id="Path_4" data-name="Path 4" d="M15,16.5v9.312" transform="translate(-4.136 -2.532)" fill="none" stroke="#f59c9c" stroke-linecap="round" stroke-linejoin="round" stroke-width="2"/>
      <path id="Path_5" data-name="Path 5" d="M21,16.5v9.312" transform="translate(-3.928 -2.532)" fill="none" stroke="#f59c9c" stroke-linecap="round" stroke-linejoin="round" stroke-width="2"/>
    </g>
    <text id="Eat_mango_s" data-name="Eat mango&apos;s" transform="translate(210 606)" fill="#5c5c5c" font-size="24" font-family="Montserrat-SemiBold, Montserrat" font-weight="600"><tspan x="0" y="0">Eat mango&apos;s</tspan></text>
    <line id="Line_7" data-name="Line 7" x2="1625" transform="translate(152 650.463)" fill="none" stroke="#cecece" stroke-linecap="round" stroke-width="1"/>
    <g id="Icon_feather-trash-2-2" data-name="Icon feather-trash-2" transform="translate(1727.365 588.529)">
      <path id="Path_2-2" data-name="Path 2" d="M4.5,9H32.435" transform="translate(-4.5 -2.792)" fill="none" stroke="#f59c9c" stroke-linecap="round" stroke-linejoin="round" stroke-width="2"/>
      <path id="Path_3-2" data-name="Path 3" d="M29.228,9.208V30.935a3.1,3.1,0,0,1-3.1,3.1H10.6a3.1,3.1,0,0,1-3.1-3.1V9.208m4.656,0V6.1A3.1,3.1,0,0,1,15.26,3h6.208a3.1,3.1,0,0,1,3.1,3.1v3.1" transform="translate(-4.396 -3)" fill="none" stroke="#f59c9c" stroke-linecap="round" stroke-linejoin="round" stroke-width="2"/>
      <path id="Path_4-2" data-name="Path 4" d="M15,16.5v9.312" transform="translate(-4.136 -2.532)" fill="none" stroke="#f59c9c" stroke-linecap="round" stroke-linejoin="round" stroke-width="2"/>
      <path id="Path_5-2" data-name="Path 5" d="M21,16.5v9.312" transform="translate(-3.928 -2.532)" fill="none" stroke="#f59c9c" stroke-linecap="round" stroke-linejoin="round" stroke-width="2"/>
    </g>
    <g id="Group_26" data-name="Group 26" transform="translate(152 586)">
      <g id="Rectangle_12" data-name="Rectangle 12" fill="#8fb4e1" stroke="#8fb4e0" stroke-width="1">
        <rect width="23" height="23" stroke="none"/>
        <rect x="0.5" y="0.5" width="22" height="22" fill="none"/>
      </g>
      <g id="Group_25" data-name="Group 25" transform="translate(6.083 7.807)">
        <line id="Line_8" data-name="Line 8" x2="3.886" y2="3.886" transform="translate(0 3.886)" fill="none" stroke="#fff" stroke-linecap="round" stroke-width="1"/>
        <line id="Line_9" data-name="Line 9" x1="6.476" y2="7.771" transform="translate(3.886)" fill="none" stroke="#fff" stroke-linecap="round" stroke-width="1"/>
      </g>
    </g>
    <text id="Taskio" transform="translate(144 136)" fill="#707070" font-size="42" font-family="Montserrat-SemiBold, Montserrat" font-weight="600"><tspan x="0" y="0">Taskio</tspan></text>
    <g id="Group_21" data-name="Group 21" transform="translate(1474.942 102)">
      <circle id="Ellipse_5" data-name="Ellipse 5" cx="18" cy="18" r="18" transform="translate(0.058 2)" fill="#b19cf5"/>
      <circle id="Ellipse_6" data-name="Ellipse 6" cx="18" cy="18" r="18" transform="translate(87.058 2)" fill="#f59c9c"/>
      <ellipse id="Ellipse_7" data-name="Ellipse 7" cx="17.5" cy="18" rx="17.5" ry="18" transform="translate(176.058 2)" fill="#83cd9a"/>
      <ellipse id="Ellipse_8" data-name="Ellipse 8" cx="18.5" cy="18" rx="18.5" ry="18" transform="translate(265.058 0)" fill="#8fb4e0"/>
    </g>
    <g id="Group_22" data-name="Group 22" transform="translate(144 223)">
      <rect id="Rectangle_9" data-name="Rectangle 9" width="1633" height="79" rx="10" transform="translate(0 0)" fill="#f4f4f4"/>
      <text id="Add_task" data-name="Add task" transform="translate(40 47)" fill="#d3d3d3" font-size="26" font-family="Montserrat-SemiBold, Montserrat" font-weight="600"><tspan x="0" y="0">Add task</tspan></text>
      <path id="Icon_awesome-plus" data-name="Icon awesome-plus" d="M26.08,13.284H17.052V4.256A2.006,2.006,0,0,0,15.046,2.25H13.04a2.006,2.006,0,0,0-2.006,2.006v9.028H2.006A2.006,2.006,0,0,0,0,15.29V17.3A2.006,2.006,0,0,0,2.006,19.3h9.028V28.33a2.006,2.006,0,0,0,2.006,2.006h2.006a2.006,2.006,0,0,0,2.006-2.006V19.3H26.08A2.006,2.006,0,0,0,28.086,17.3V15.29A2.006,2.006,0,0,0,26.08,13.284Z" transform="translate(1582.645 22.746)" fill="#c4c4c4"/>
    </g>
    <g id="Group_27" data-name="Group 27" transform="translate(1740.975 505.338) rotate(180)">
      <line id="Line_3-3" data-name="Line 3" x2="8.506" y2="8.506" transform="translate(0 0)" fill="none" stroke="#fff" stroke-linecap="round" stroke-width="1"/>
      <line id="Line_4-3" data-name="Line 4" x1="8.506" y2="8.506" transform="translate(8.506 0)" fill="none" stroke="#fff" stroke-linecap="round" stroke-width="1"/>
    </g>
    <text id="Buy_sweaters" data-name="Buy sweaters" transform="translate(211 489)" fill="#5c5c5c" font-size="24" font-family="Montserrat-SemiBold, Montserrat" font-weight="600"><tspan x="0" y="0">Buy sweaters</tspan></text>
    <g id="Rectangle_14" data-name="Rectangle 14" transform="translate(153 470)" fill="#fff" stroke="#8fb4e0" stroke-width="1">
      <rect width="23" height="24" stroke="none"/>
      <rect x="0.5" y="0.5" width="22" height="23" fill="none"/>
    </g>
    <line id="Line_10" data-name="Line 10" x2="1624" transform="translate(153 533.866)" fill="none" stroke="#cecece" stroke-linecap="round" stroke-width="1"/>
    <g id="Icon_feather-trash-2-3" data-name="Icon feather-trash-2" transform="translate(1727.365 464.862)">
      <path id="Path_2-3" data-name="Path 2" d="M4.5,9H32.435" transform="translate(-4.5 -2.792)" fill="none" stroke="#f59c9c" stroke-linecap="round" stroke-linejoin="round" stroke-width="2"/>
      <path id="Path_3-3" data-name="Path 3" d="M29.228,9.208V30.935a3.1,3.1,0,0,1-3.1,3.1H10.6a3.1,3.1,0,0,1-3.1-3.1V9.208m4.656,0V6.1A3.1,3.1,0,0,1,15.26,3h6.208a3.1,3.1,0,0,1,3.1,3.1v3.1" transform="translate(-4.396 -3)" fill="none" stroke="#f59c9c" stroke-linecap="round" stroke-linejoin="round" stroke-width="2"/>
      <path id="Path_4-3" data-name="Path 4" d="M15,16.5v9.312" transform="translate(-4.136 -2.532)" fill="none" stroke="#f59c9c" stroke-linecap="round" stroke-linejoin="round" stroke-width="2"/>
      <path id="Path_5-3" data-name="Path 5" d="M21,16.5v9.312" transform="translate(-3.928 -2.532)" fill="none" stroke="#f59c9c" stroke-linecap="round" stroke-linejoin="round" stroke-width="2"/>
    </g>
  </g>
</svg>
